# xmcd CD database file
#
# Track frame offsets:
#	150
#	23409
#	47310
#	69208
#	97132
#	117788
#	140430
#	171499
#
# Disc length: 2727 seconds
#
# Revision: 0
# Processed by: cddbd v1.5.2PL0 Copyright (c) Steve Scherf et al.
# Submitted via: CDex 1.70beta2
#
DISCID=600aa508
DTITLE=Knut Riisnaes Quartet - 2nd Thoughts
DYEAR=2016
DGENRE=Jazz
TTITLE0=2nd Thoughts
TTITLE1=Petite Prix
TTITLE2=She Was Too Good To Me
TTITLE3=Meet The Wickeds
TTITLE4=Sniper
TTITLE5=Touching
TTITLE6=Liten vals
TTITLE7=Crazy She Calls Me
EXTD=YEAR: 2016
EXTT0=
EXTT1=
EXTT2=
EXTT3=
EXTT4=
EXTT5=
EXTT6=
EXTT7=
PLAYORDER=
